<svg xmlns="http://www.w3.org/2000/svg" viewBox="0 0 400 250">
  <defs>
    <linearGradient id="gBg" x1="0" y1="0" x2="1" y2="1">
      <stop offset="0%" stop-color="#FFE7EF"/>
      <stop offset="100%" stop-color="#FFF6EC"/>
    </linearGradient>
    <linearGradient id="gBottle" x1="0" y1="0" x2="0" y2="1">
      <stop offset="0%" stop-color="#FFC2D6"/>
      <stop offset="100%" stop-color="#FF8FB3"/>
    </linearGradient>
  </defs>
  <rect width="400" height="250" fill="url(#gBg)"/>

  <!-- browser chrome -->
  <rect x="0" y="0" width="400" height="26" fill="#ffffff" opacity="0.65"/>
  <circle cx="16" cy="13" r="4" fill="#FF8FB3"/>
  <circle cx="30" cy="13" r="4" fill="#FFD1A9"/>
  <circle cx="44" cy="13" r="4" fill="#B9E4C9"/>
  <rect x="70" y="7" width="180" height="12" rx="6" fill="#ffffff"/>

  <!-- hero text block -->
  <rect x="28" y="52" width="150" height="14" rx="4" fill="#403020" opacity="0.55"/>
  <rect x="28" y="74" width="110" height="10" rx="4" fill="#403020" opacity="0.3"/>
  <rect x="28" y="96" width="86" height="24" rx="12" fill="#E8557F"/>

  <!-- product cards -->
  <g>
    <rect x="220" y="46" width="150" height="80" rx="10" fill="#ffffff" opacity="0.9"/>
    <rect x="238" y="60" width="30" height="42" rx="6" fill="url(#gBottle)"/>
    <rect x="278" y="66" width="70" height="8" rx="4" fill="#403020" opacity="0.35"/>
    <rect x="278" y="80" width="50" height="8" rx="4" fill="#403020" opacity="0.2"/>
  </g>

  <g>
    <rect x="28" y="150" width="105" height="80" rx="10" fill="#ffffff" opacity="0.9"/>
    <circle cx="80" cy="182" r="22" fill="#FFD9C2"/>
    <rect x="42" y="212" width="76" height="8" rx="4" fill="#403020" opacity="0.25"/>
  </g>
  <g>
    <rect x="147" y="150" width="105" height="80" rx="10" fill="#ffffff" opacity="0.9"/>
    <circle cx="199" cy="182" r="22" fill="#C9E8D6"/>
    <rect x="161" y="212" width="76" height="8" rx="4" fill="#403020" opacity="0.25"/>
  </g>
  <g>
    <rect x="266" y="150" width="105" height="80" rx="10" fill="#ffffff" opacity="0.9"/>
    <circle cx="318" cy="182" r="22" fill="#FFC2D6"/>
    <rect x="280" y="212" width="76" height="8" rx="4" fill="#403020" opacity="0.25"/>
  </g>
</svg>
